<?xml version="1.0" encoding="UTF-8" standalone="no"?>
<!DOCTYPE svg PUBLIC "-//W3C//DTD SVG 1.1//EN" "http://www.w3.org/Graphics/SVG/1.1/DTD/svg11.dtd">
<svg width="100%" height="100%" viewBox="0 0 300 300" version="1.1" xmlns="http://www.w3.org/2000/svg" xmlns:xlink="http://www.w3.org/1999/xlink" xml:space="preserve" xmlns:serif="http://www.serif.com/" style="fill-rule:evenodd;clip-rule:evenodd;stroke-linejoin:round;stroke-miterlimit:1.41421;">
    <g id="logo" transform="matrix(1.03448,-0.00155061,0.00155061,1.03448,-10.277,-9.30148)">
        <g transform="matrix(1.51592,0,0,1.52796,7.93568,6.4895)">
            <ellipse cx="96.818" cy="96.687" rx="95.652" ry="94.897" style="fill:white;"/>
        </g>
        <g id="diamond">
            <path id="diamond-0" serif:id="diamond 0" d="M142.5,254.6C146.9,251.1 159.7,238.8 171,227.4C204.7,193.1 220,173.4 220,164.3C220,156.2 206.3,108.5 197.7,86.4C190.6,68.5 182.4,50.8 180.3,49.3C175,45.3 165.4,51.3 146.4,70.4C110.8,106.1 90,133.3 90,144C90,157.5 109.4,218.3 122.5,245.6C127.7,256.6 130.8,261 133.3,261C134,261 138.2,258.1 142.5,254.6Z" style="fill:rgb(255,128,36);fill-rule:nonzero;"/>
            <g id="diamond-1" serif:id="diamond 1">
                <path d="M130.7,238.2C124.9,231.8 106.8,183.3 100.2,156.5C97.4,145.2 96.7,140.5 97.5,137C100.2,124.9 162.5,58 171.1,58C174,58 177.7,63.9 183.6,78.1C196.1,108.3 207.2,144.9 207.4,156.1C207.5,162.5 207.3,163.1 202.8,169.7C195,181.1 182.5,195.5 164.5,213.9C147.5,231.3 137.3,240 134,240C133.1,240 131.6,239.2 130.7,238.2Z" style="fill:rgb(244,171,108);fill-rule:nonzero;"/>
            </g>
            <g id="diamond-2" serif:id="diamond 2">
                <path d="M172.4,162.5C161.5,160.6 154.5,158.2 152.4,155.9C147.8,150.8 150.3,129.7 159,101C163.5,86.4 168.7,73 170,73C170.4,73 173.4,75.9 176.7,79.4C187.1,90.5 197.1,113 200.6,133.4C203.6,150.9 199.418,160.94 187,162.9C185.282,163.171 181.8,164.139 172.4,162.5Z" style="fill:rgb(246,213,186);fill-rule:nonzero;"/>
            </g>
        </g>
    </g>
</svg>
