<?xml version="1.0" encoding="UTF-8" standalone="no"?>
<!DOCTYPE svg PUBLIC "-//W3C//DTD SVG 1.1//EN" "http://www.w3.org/Graphics/SVG/1.1/DTD/svg11.dtd">
<svg width="100%" height="100%" viewBox="0 0 300 300" version="1.1" xmlns="http://www.w3.org/2000/svg" xmlns:xlink="http://www.w3.org/1999/xlink" xml:space="preserve" xmlns:serif="http://www.serif.com/" style="fill-rule:evenodd;clip-rule:evenodd;stroke-linejoin:round;stroke-miterlimit:1.41421;">
    <g transform="matrix(-1.65917,-7.36819e-16,7.36819e-16,-1.65917,150,150)">
        <circle cx="0" cy="0" r="90.407" style="fill:rgb(46,87,109);"/>
    </g>
    <g transform="matrix(-1.54856,-6.87697e-16,6.87697e-16,-1.54856,150,150)">
        <circle cx="0" cy="0" r="90.407" style="fill:rgb(224,148,110);"/>
    </g>
    <g id="Layer1">
        <path d="M105.905,17.097C55.405,42.416 21,92.459 21,150C21,207.541 55.405,257.584 105.905,282.903C50.214,264.411 10,211.865 10,150C10,88.135 50.214,35.589 105.905,17.097Z" style="fill:rgb(143,119,117);"/>
        <g transform="matrix(-1,0,0,1,300,0)">
            <path d="M105.905,17.097C55.405,42.416 21,92.459 21,150C21,207.541 55.405,257.584 105.905,282.903C50.214,264.411 10,211.865 10,150C10,88.135 50.214,35.589 105.905,17.097Z" style="fill:rgb(143,119,117);"/>
        </g>
    </g>
    <path d="M13.881,117.157C28.675,55.712 84.041,10 150,10C182.003,10 211.512,20.761 235.103,38.859C210.769,51.377 194.9,98.362 187.961,107.738C164.367,139.619 144.583,155.299 96.275,153.634C47.966,151.968 13.931,117.26 13.931,117.26L13.881,117.157Z" style="fill:rgb(255,52,0);fill-opacity:0.32;"/>
    <g>
        <path d="M150,275C81.011,275 25,218.989 25,150C25,81.011 81.011,25 150,25C218.989,25 275,81.011 275,150C275,218.989 218.989,275 150,275ZM150,270C83.77,270 30,216.23 30,150C30,83.77 83.77,30 150,30C216.23,30 270,83.77 270,150C270,216.23 216.23,270 150,270Z" style="fill:rgb(46,87,109);"/>
        <g transform="matrix(1,0,0,1,-0.268549,0.65637)">
            <path d="M61.506,155.484C59.574,155.484 58.006,153.916 58.006,151.984C58.006,150.052 59.574,148.484 61.506,148.484C63.438,148.484 65.006,150.052 65.006,151.984C65.006,153.916 63.438,155.484 61.506,155.484ZM61.506,153.484C60.678,153.484 60.006,152.812 60.006,151.984C60.006,151.156 60.678,150.484 61.506,150.484C62.334,150.484 63.006,151.156 63.006,151.984C63.006,152.812 62.334,153.484 61.506,153.484Z" style="fill:rgb(46,87,109);"/>
        </g>
        <g transform="matrix(1.02683,0,0,1.77003,-1.02115,-116.512)">
            <rect x="28.051" y="151.496" width="29.955" height="1.13" style="fill:rgb(46,87,109);"/>
        </g>
        <g transform="matrix(1,0,0,1,-0.268549,14.6564)">
            <path d="M61.506,155.484C59.574,155.484 58.006,153.916 58.006,151.984C58.006,150.052 59.574,148.484 61.506,148.484C63.438,148.484 65.006,150.052 65.006,151.984C65.006,153.916 63.438,155.484 61.506,155.484ZM61.506,153.484C60.678,153.484 60.006,152.812 60.006,151.984C60.006,151.156 60.678,150.484 61.506,150.484C62.334,150.484 63.006,151.156 63.006,151.984C63.006,152.812 62.334,153.484 61.506,153.484Z" style="fill:rgb(46,87,109);"/>
        </g>
        <g transform="matrix(0.952799,0,0,1.77003,3.27309,-102.512)">
            <rect x="28.051" y="151.496" width="29.955" height="1.13" style="fill:rgb(46,87,109);"/>
        </g>
        <g transform="matrix(1,0,0,1,-7.26855,7.65637)">
            <path d="M61.506,155.484C59.574,155.484 58.006,153.916 58.006,151.984C58.006,150.052 59.574,148.484 61.506,148.484C63.438,148.484 65.006,150.052 65.006,151.984C65.006,153.916 63.438,155.484 61.506,155.484ZM61.506,153.484C60.678,153.484 60.006,152.812 60.006,151.984C60.006,151.156 60.678,150.484 61.506,150.484C62.334,150.484 63.006,151.156 63.006,151.984C63.006,152.812 62.334,153.484 61.506,153.484Z" style="fill:rgb(46,87,109);"/>
        </g>
        <g transform="matrix(0.793145,0,0,1.77003,5.53394,-109.512)">
            <rect x="28.051" y="151.496" width="29.955" height="1.13" style="fill:rgb(46,87,109);"/>
        </g>
        <g transform="matrix(1,0,0,1,-16.746,-6.34363)">
            <path d="M61.506,155.484C59.574,155.484 58.006,153.916 58.006,151.984C58.006,150.052 59.574,148.484 61.506,148.484C63.438,148.484 65.006,150.052 65.006,151.984C65.006,153.916 63.438,155.484 61.506,155.484ZM61.506,153.484C60.678,153.484 60.006,152.812 60.006,151.984C60.006,151.156 60.678,150.484 61.506,150.484C62.334,150.484 63.006,151.156 63.006,151.984C63.006,152.812 62.334,153.484 61.506,153.484Z" style="fill:rgb(46,87,109);"/>
        </g>
        <g transform="matrix(0.476754,0,0,1.77003,14.409,-123.512)">
            <rect x="28.051" y="151.496" width="29.955" height="1.13" style="fill:rgb(46,87,109);"/>
        </g>
        <g transform="matrix(-1,0,0,1,300.051,0.616027)">
            <path d="M61.506,155.484C59.574,155.484 58.006,153.916 58.006,151.984C58.006,150.052 59.574,148.484 61.506,148.484C63.438,148.484 65.006,150.052 65.006,151.984C65.006,153.916 63.438,155.484 61.506,155.484ZM61.506,153.484C60.678,153.484 60.006,152.812 60.006,151.984C60.006,151.156 60.678,150.484 61.506,150.484C62.334,150.484 63.006,151.156 63.006,151.984C63.006,152.812 62.334,153.484 61.506,153.484Z" style="fill:rgb(46,87,109);"/>
        </g>
        <g transform="matrix(-1.02683,0,0,1.77003,300.804,-116.553)">
            <rect x="28.051" y="151.496" width="29.955" height="1.13" style="fill:rgb(46,87,109);"/>
        </g>
        <g transform="matrix(-1,0,0,1,300.051,14.616)">
            <path d="M61.506,155.484C59.574,155.484 58.006,153.916 58.006,151.984C58.006,150.052 59.574,148.484 61.506,148.484C63.438,148.484 65.006,150.052 65.006,151.984C65.006,153.916 63.438,155.484 61.506,155.484ZM61.506,153.484C60.678,153.484 60.006,152.812 60.006,151.984C60.006,151.156 60.678,150.484 61.506,150.484C62.334,150.484 63.006,151.156 63.006,151.984C63.006,152.812 62.334,153.484 61.506,153.484Z" style="fill:rgb(46,87,109);"/>
        </g>
        <g transform="matrix(-0.952799,0,0,1.77003,296.509,-102.553)">
            <rect x="28.051" y="151.496" width="29.955" height="1.13" style="fill:rgb(46,87,109);"/>
        </g>
        <g transform="matrix(-1,0,0,1,307.051,7.61603)">
            <path d="M61.506,155.484C59.574,155.484 58.006,153.916 58.006,151.984C58.006,150.052 59.574,148.484 61.506,148.484C63.438,148.484 65.006,150.052 65.006,151.984C65.006,153.916 63.438,155.484 61.506,155.484ZM61.506,153.484C60.678,153.484 60.006,152.812 60.006,151.984C60.006,151.156 60.678,150.484 61.506,150.484C62.334,150.484 63.006,151.156 63.006,151.984C63.006,152.812 62.334,153.484 61.506,153.484Z" style="fill:rgb(46,87,109);"/>
        </g>
        <g transform="matrix(-0.793145,0,0,1.77003,294.248,-109.553)">
            <rect x="28.051" y="151.496" width="29.955" height="1.13" style="fill:rgb(46,87,109);"/>
        </g>
        <g transform="matrix(-1,0,0,1,316.528,-6.38397)">
            <path d="M61.506,155.484C59.574,155.484 58.006,153.916 58.006,151.984C58.006,150.052 59.574,148.484 61.506,148.484C63.438,148.484 65.006,150.052 65.006,151.984C65.006,153.916 63.438,155.484 61.506,155.484ZM61.506,153.484C60.678,153.484 60.006,152.812 60.006,151.984C60.006,151.156 60.678,150.484 61.506,150.484C62.334,150.484 63.006,151.156 63.006,151.984C63.006,152.812 62.334,153.484 61.506,153.484Z" style="fill:rgb(46,87,109);"/>
        </g>
        <g transform="matrix(-0.476754,0,0,1.77003,285.373,-123.553)">
            <rect x="28.051" y="151.496" width="29.955" height="1.13" style="fill:rgb(46,87,109);"/>
        </g>
    </g>
    <g>
        <g transform="matrix(0.336023,6.50521e-19,-6.50521e-19,0.336023,-1.40443,-1.54262)">
            <path d="M563.345,322.587C563.255,322.536 563.173,322.473 563.1,322.4C562.7,321.9 559.3,313 555.5,302.5C535.2,245.7 513,197 502.8,186.8C498.5,182.5 490.9,185.6 474.7,198.3C425.9,236.6 321.7,350.5 291.6,398.4C283.1,411.9 281.7,416.5 282.3,428C282.6,433.2 283.9,442.6 285.1,448.8C286.156,454.429 286.747,459.208 286.533,460.549C287.298,461.566 288.871,466.106 290,471C304.1,530.2 343.6,642.2 366.7,688.5C376.9,708.9 382.9,717 387.6,717C397.2,717 426.7,692.3 472,646.4C521.6,596.1 568.9,541 590.4,508.8C599.2,495.5 602.9,488 603.7,481.3C605.5,465.6 591.5,408.6 570.1,344.3L563,323.2L563.345,322.587Z" style="fill:rgb(46,87,109);fill-rule:nonzero;"/>
        </g>
        <g transform="matrix(0.336019,-0.00167061,0.00167061,0.336019,-2.15602,-0.800641)">
            <path d="M383.7,664.1C362.1,640.1 305.1,479.8 298,423C296.4,409.7 297.7,405.6 308.7,389C340.9,340.5 444.1,231 475.4,212.2C484,207 485.5,207 490.3,212.3C514.5,238.2 580.8,432.6 576.6,464.9C575.2,475.7 558.2,500.2 526.4,537.7C489.1,581.5 433.6,637.8 408.5,657.2C393,669.3 389.3,670.3 383.7,664.1Z" style="fill:rgb(56,109,132);fill-rule:nonzero;"/>
        </g>
        <g transform="matrix(0.336019,-0.00167061,0.00167061,0.336019,-2.15602,-0.800641)">
            <path d="M489.5,474.5C474.8,471.8 444.3,462.9 439.2,459.8C426.4,452 425.7,422.9 437,373.7C446.4,333.2 463.7,278.8 475.3,253.6C477.3,249.4 479.3,246 479.9,246C481.5,246 491.9,255 497.9,261.6C522.4,288.3 542.6,330.4 555.4,381.5C561.5,405.7 563.1,427.9 559.7,440.9C555,458.5 541.9,470.4 522.4,474.5C514,476.3 499,476.3 489.5,474.5Z" style="fill:rgb(76,124,145);fill-rule:nonzero;"/>
        </g>
    </g>
    <g transform="matrix(0.314726,0,0,0.314726,178.765,13.3723)">
        <g transform="matrix(130.267,-2.77556e-17,1.75641e-17,2.01188,-21102.8,-497.133)">
            <ellipse cx="163.338" cy="538.385" rx="0.062" ry="4.046" style="fill:rgb(144,118,114);"/>
        </g>
        <g transform="matrix(130.267,-2.77556e-17,1.75641e-17,2.01188,-21102.8,-476.64)">
            <ellipse cx="163.338" cy="538.385" rx="0.062" ry="4.046" style="fill:rgb(144,118,114);"/>
        </g>
        <g transform="matrix(130.267,-2.77556e-17,1.75641e-17,2.01188,-21102.8,-456.147)">
            <ellipse cx="163.338" cy="538.385" rx="0.062" ry="4.046" style="fill:rgb(144,118,114);"/>
        </g>
        <g transform="matrix(130.267,-2.77556e-17,1.75641e-17,2.01188,-21084,-476.625)">
            <ellipse cx="163.338" cy="538.385" rx="0.062" ry="4.046" style="fill:rgb(144,118,114);"/>
        </g>
        <g transform="matrix(130.267,-2.77556e-17,1.75641e-17,2.01188,-21084,-456.053)">
            <ellipse cx="163.338" cy="538.385" rx="0.062" ry="4.046" style="fill:rgb(144,118,114);"/>
        </g>
        <g transform="matrix(130.267,-2.77556e-17,1.75641e-17,2.01188,-21084,-435.481)">
            <ellipse cx="163.338" cy="538.385" rx="0.062" ry="4.046" style="fill:rgb(144,118,114);"/>
        </g>
    </g>
    <g transform="matrix(0.314726,0,0,0.314726,188.779,-91.4158)">
        <g transform="matrix(130.267,-2.77556e-17,1.75641e-17,2.01188,-21102.8,-497.133)">
            <ellipse cx="163.338" cy="538.385" rx="0.062" ry="4.046" style="fill:rgb(144,118,114);"/>
        </g>
        <g transform="matrix(130.267,-2.77556e-17,1.75641e-17,2.01188,-21102.8,-476.64)">
            <ellipse cx="163.338" cy="538.385" rx="0.062" ry="4.046" style="fill:rgb(144,118,114);"/>
        </g>
        <g transform="matrix(130.267,-2.77556e-17,1.75641e-17,2.01188,-21102.8,-456.147)">
            <ellipse cx="163.338" cy="538.385" rx="0.062" ry="4.046" style="fill:rgb(144,118,114);"/>
        </g>
        <g transform="matrix(130.267,-2.77556e-17,1.75641e-17,2.01188,-21084,-476.625)">
            <ellipse cx="163.338" cy="538.385" rx="0.062" ry="4.046" style="fill:rgb(144,118,114);"/>
        </g>
        <g transform="matrix(130.267,-2.77556e-17,1.75641e-17,2.01188,-21084,-456.053)">
            <ellipse cx="163.338" cy="538.385" rx="0.062" ry="4.046" style="fill:rgb(144,118,114);"/>
        </g>
        <g transform="matrix(130.267,-2.77556e-17,1.75641e-17,2.01188,-21084,-435.481)">
            <ellipse cx="163.338" cy="538.385" rx="0.062" ry="4.046" style="fill:rgb(144,118,114);"/>
        </g>
    </g>
    <g transform="matrix(0.0929977,0.300672,-0.300672,0.0929977,350.932,165.905)">
        <g transform="matrix(130.267,-2.77556e-17,1.75641e-17,2.01188,-21102.8,-497.133)">
            <ellipse cx="163.338" cy="538.385" rx="0.062" ry="4.046" style="fill:rgb(144,118,114);"/>
        </g>
        <g transform="matrix(130.267,-2.77556e-17,1.75641e-17,2.01188,-21102.8,-476.64)">
            <ellipse cx="163.338" cy="538.385" rx="0.062" ry="4.046" style="fill:rgb(144,118,114);"/>
        </g>
        <g transform="matrix(130.267,-2.77556e-17,1.75641e-17,2.01188,-21102.8,-456.147)">
            <ellipse cx="163.338" cy="538.385" rx="0.062" ry="4.046" style="fill:rgb(144,118,114);"/>
        </g>
        <g transform="matrix(130.267,-2.77556e-17,1.75641e-17,2.01188,-21084,-476.625)">
            <ellipse cx="163.338" cy="538.385" rx="0.062" ry="4.046" style="fill:rgb(144,118,114);"/>
        </g>
        <g transform="matrix(130.267,-2.77556e-17,1.75641e-17,2.01188,-21084,-456.053)">
            <ellipse cx="163.338" cy="538.385" rx="0.062" ry="4.046" style="fill:rgb(144,118,114);"/>
        </g>
        <g transform="matrix(130.267,-2.77556e-17,1.75641e-17,2.01188,-21084,-435.481)">
            <ellipse cx="163.338" cy="538.385" rx="0.062" ry="4.046" style="fill:rgb(144,118,114);"/>
        </g>
    </g>
    <g transform="matrix(0.314726,0,0,0.314726,3.70189,12.4098)">
        <g transform="matrix(130.267,-2.77556e-17,1.75641e-17,2.01188,-21102.8,-497.133)">
            <ellipse cx="163.338" cy="538.385" rx="0.062" ry="4.046" style="fill:white;"/>
        </g>
        <g transform="matrix(130.267,-2.77556e-17,1.75641e-17,2.01188,-21102.8,-476.64)">
            <ellipse cx="163.338" cy="538.385" rx="0.062" ry="4.046" style="fill:white;"/>
        </g>
        <g transform="matrix(130.267,-2.77556e-17,1.75641e-17,2.01188,-21102.8,-456.147)">
            <ellipse cx="163.338" cy="538.385" rx="0.062" ry="4.046" style="fill:white;"/>
        </g>
        <g transform="matrix(130.267,-2.77556e-17,1.75641e-17,2.01188,-21121.7,-517.625)">
            <ellipse cx="163.338" cy="538.385" rx="0.062" ry="4.046" style="fill:white;"/>
        </g>
        <g transform="matrix(130.267,-2.77556e-17,1.75641e-17,2.01188,-21121.7,-497.133)">
            <ellipse cx="163.338" cy="538.385" rx="0.062" ry="4.046" style="fill:white;"/>
        </g>
        <g transform="matrix(130.267,-2.77556e-17,1.75641e-17,2.01188,-21121.7,-476.64)">
            <ellipse cx="163.338" cy="538.385" rx="0.062" ry="4.046" style="fill:white;"/>
        </g>
        <g transform="matrix(130.267,-2.77556e-17,1.75641e-17,2.01188,-21084,-476.625)">
            <ellipse cx="163.338" cy="538.385" rx="0.062" ry="4.046" style="fill:white;"/>
        </g>
        <g transform="matrix(130.267,-2.77556e-17,1.75641e-17,2.01188,-21084,-456.053)">
            <ellipse cx="163.338" cy="538.385" rx="0.062" ry="4.046" style="fill:white;"/>
        </g>
        <g transform="matrix(130.267,-2.77556e-17,1.75641e-17,2.01188,-21084,-435.481)">
            <ellipse cx="163.338" cy="538.385" rx="0.062" ry="4.046" style="fill:white;"/>
        </g>
        <g transform="matrix(110.663,68.726,-1.06142,1.7091,-17310.3,-11933.7)">
            <ellipse cx="163.338" cy="538.385" rx="0.062" ry="4.046" style="fill:white;"/>
        </g>
        <g transform="matrix(110.663,68.726,-1.06142,1.7091,-17321.1,-11916.3)">
            <ellipse cx="163.338" cy="538.385" rx="0.062" ry="4.046" style="fill:white;"/>
        </g>
        <g transform="matrix(110.663,68.726,-1.06142,1.7091,-17331.9,-11898.9)">
            <ellipse cx="163.338" cy="538.385" rx="0.062" ry="4.046" style="fill:white;"/>
        </g>
        <g transform="matrix(110.663,68.726,-1.06142,1.7091,-17305.1,-11906.4)">
            <ellipse cx="163.338" cy="538.385" rx="0.062" ry="4.046" style="fill:white;"/>
        </g>
        <g transform="matrix(110.663,68.726,-1.06142,1.7091,-17316,-11888.9)">
            <ellipse cx="163.338" cy="538.385" rx="0.062" ry="4.046" style="fill:white;"/>
        </g>
        <g transform="matrix(110.663,68.726,-1.06142,1.7091,-17326.8,-11871.4)">
            <ellipse cx="163.338" cy="538.385" rx="0.062" ry="4.046" style="fill:white;"/>
        </g>
    </g>
</svg>
