<?xml version="1.0" encoding="UTF-8" standalone="no"?>
<!DOCTYPE svg PUBLIC "-//W3C//DTD SVG 1.1//EN" "http://www.w3.org/Graphics/SVG/1.1/DTD/svg11.dtd">
<svg width="100%" height="100%" viewBox="0 0 900 900" version="1.1" xmlns="http://www.w3.org/2000/svg" xmlns:xlink="http://www.w3.org/1999/xlink" xml:space="preserve" xmlns:serif="http://www.serif.com/" style="fill-rule:evenodd;clip-rule:evenodd;stroke-linejoin:round;stroke-miterlimit:1.41421;">
    <g transform="matrix(3.9332,0,0,3.63918,-1435.04,-1471.36)">
        <ellipse cx="479.263" cy="527.966" rx="114.411" ry="123.654" style="fill:rgb(46,87,109);"/>
    </g>
    <path d="M383.7,664.1C362.1,640.1 305.1,479.8 298,423C296.4,409.7 297.7,405.6 308.7,389C340.9,340.5 444.1,231 475.4,212.2C484,207 485.5,207 490.3,212.3C514.5,238.2 580.8,432.6 576.6,464.9C575.2,475.7 558.2,500.2 526.4,537.7C489.1,581.5 433.6,637.8 408.5,657.2C393,669.3 389.3,670.3 383.7,664.1Z" style="fill:rgb(56,109,132);fill-rule:nonzero;"/>
    <path d="M489.5,474.5C474.8,471.8 444.3,462.9 439.2,459.8C426.4,452 425.7,422.9 437,373.7C446.4,333.2 463.7,278.8 475.3,253.6C477.3,249.4 479.3,246 479.9,246C481.5,246 491.9,255 497.9,261.6C522.4,288.3 542.6,330.4 555.4,381.5C561.5,405.7 563.1,427.9 559.7,440.9C555,458.5 541.9,470.4 522.4,474.5C514,476.3 499,476.3 489.5,474.5Z" style="fill:rgb(76,124,145);fill-rule:nonzero;"/>
    <path d="M681.2,121.5C663.4,105.7 633.3,84.5 610.5,71.7C595.7,63.4 572.9,52.5 558,46.6C550.8,43.8 545,41 545.2,40.5C545.6,39.2 547.8,39.5 556.5,42.1C560.4,43.2 565.3,44.6 567.5,45.2C575.9,47.5 593.5,53.4 594.5,54.2C595,54.6 596,55 596.8,55C597.6,55 599.8,55.7 601.8,56.6C603.9,57.5 606.4,58.6 607.5,59C620.9,64.7 620.7,64.6 635,71.4C640.2,73.9 647.7,77.8 651.5,80C655.4,82.2 659.4,84.5 660.5,85C661.6,85.6 663.9,86.9 665.5,88C667.2,89.1 669.1,90.3 669.9,90.7C671.8,91.6 692.8,106 700.7,111.8C704.1,114.3 706.7,116.7 706.4,117.1C706,117.9 690.1,129.1 689.7,128.9C689.6,128.9 685.7,125.5 681.2,121.5Z" style="fill:rgb(180,105,62);fill-rule:nonzero;"/>
    <path d="M537.5,862.1C536.9,861 603.8,832.9 618,824.5C684.6,785 739.5,728.7 777.1,661.5C817.2,589.6 836.7,503.3 831,422C823.5,315.9 781,221 707.2,145.8C697.6,136.1 690.1,127.6 690.5,127.1C690.8,126.5 693.9,124.1 697.3,121.8C700.7,119.6 705.673,116.174 705.669,115.993C705.677,115.998 707.815,116.632 707.9,116.7C736.9,139.9 762.5,165.6 783.4,192.4C793.8,205.7 810.3,230.7 819.1,246.5C875.2,347.1 887.1,469.2 851.3,579.5C834.7,630.7 807.9,679 773.1,720.5C762.5,733.2 738.5,757.5 725.5,768.8C687.4,801.9 642.1,828.7 594.5,846.3C580.2,851.5 538.3,863.3 537.5,862.1Z" style="fill:rgb(144,118,114);fill-rule:nonzero;"/>
    <path d="M279,460.8C220.6,453.3 158.1,431.5 107,401C88.8,390.2 89.5,391 91,381.9C94.6,360.3 104.9,326.1 114.5,303.6C151.9,216 225.5,144.2 313.5,109.2C356.8,92 399.2,83.9 446.5,83.9C485.3,83.9 516.4,88.3 552,99.1C586.8,109.6 627,129.3 654.6,149.3L661.2,154.1L656.8,158.8C635.8,181.4 621,206.7 592.8,268.5C584.8,286 567,320.8 565.3,322.2C564.5,322.9 563.6,322.9 563.1,322.4C562.7,321.9 559.3,313 555.5,302.5C535.2,245.7 513,197 502.8,186.8C498.5,182.5 490.9,185.6 474.7,198.3C425.9,236.6 321.7,350.5 291.6,398.4C283.1,411.9 281.7,416.5 282.3,428C282.6,433.2 283.9,442.6 285.1,448.8C286.3,455.2 286.9,460.5 286.4,460.9C285.9,461.3 282.6,461.3 279,460.8Z" style="fill:rgb(255,114,36);fill-rule:nonzero;"/>
    <path d="M77.2,381.8C74,379.8 73.8,379.5 74.5,375.2C74.9,372.7 76.9,363.6 79.1,354.9C107.8,238.1 185.1,137.4 291.5,77.9C324,59.8 361.5,45 398.2,36.1C427.3,29 429.9,28.7 460.3,29.3C497.6,30 530,34.4 549.6,41.5C594.9,57.9 644.5,87.4 681.9,120.1L691.3,128.3L688.4,130.4C686.8,131.6 681.5,135.8 676.7,139.8C671.9,143.8 667.6,147 667.2,146.8C666.8,146.6 660,142.2 652,136.9C574.4,85.3 481.7,65.1 389.1,79.6C287.9,95.4 196.5,153.9 139.3,239.5C129.8,253.8 122.4,266.9 113.5,285.4C100.2,312.9 90.4,341.7 84.6,370.4C83.3,376.9 81.8,382.6 81.3,383.1C80.9,383.5 79,383 77.2,381.8Z" style="fill:rgb(255,114,36);fill-rule:nonzero;"/>
    <path d="M66.5,373.9C53.5,364.2 40,352.7 40,351.5C40,350.9 41.4,345.4 43,339.4C67.6,250.9 119.2,173.9 191.8,117.3C246.2,74.8 311.5,45.9 379,34.6C396.6,31.6 426.4,28.5 428.7,29.5C431.4,30.5 428.9,31.7 421.5,32.9C409.4,34.9 382.5,41.9 366.9,47C339.9,56 314.7,67 291.5,79.9C195.5,133.6 124.5,219.6 89.9,324C85.2,338.3 79.3,360.4 76.9,372.8C76.3,376.2 75.4,379.2 75.1,379.4C74.7,379.7 70.9,377.2 66.5,373.9Z" style="fill:rgb(196,116,84);fill-rule:nonzero;"/>
    <path d="M284.5,838.1C265.5,829.1 241.6,816.8 235.3,812.7C232.9,811.2 230.8,810 230.6,810C229.1,810 198.1,787.9 186,778.2C167,763 136.7,732.7 121.3,713.4C68.6,647.4 38,571.8 29.9,487C28.4,470.9 28.4,429.1 29.9,413C32.2,388.7 38.1,355.6 40.4,353.2C41.4,352.2 43,353 48.8,357.9C52.7,361.2 60.5,367.3 66,371.5C73.3,377 76,379.6 75.6,380.8C73.3,388.6 70.2,415.8 69,439.2C67.3,470.7 70,509.9 76,541.5C96.4,648.2 157.1,744.6 244,808.7C256.4,817.8 273.6,829.2 282.8,834.2C286.7,836.4 289.8,838.6 289.4,839.1C288.7,840.2 289.2,840.3 284.5,838.1Z" style="fill:rgb(181,133,120);fill-rule:nonzero;"/>
    <g>
        <path d="M433.5,871.3C387.8,869.2 345.7,860.8 305.1,845.9C285.5,838.7 271.7,830.8 246,812.1C211.3,787 175.1,750.7 149.9,716C81.6,622 54.2,508.5 71.6,391.8C73.5,379.4 74.5,377.8 79,381C80.6,382.2 82,383.3 82,383.6C82,383.8 81.3,388.4 80.6,393.8C75.2,430.1 76.1,474.8 83.1,512.5C102.3,616.6 165.6,707.9 256.5,762.5C402,850.1 588.9,827.1 709,707C796.4,619.7 834.5,494 810.4,373C793.6,288.3 746.3,210.4 679.2,156.6C664.9,145.1 664.9,147.4 679.8,135.2C688.6,128.1 689.2,127.8 691.6,129C694.8,130.8 717.1,153.6 728.6,167.1C780.4,227.5 815,301.8 827.4,379C832.1,408 832.5,414 832.5,451C832.4,489.3 831.2,503.6 825.4,533C802.5,648.5 735.7,748.4 637.5,813.7C620.5,825 608.9,831.6 588.9,841.5C562.8,854.3 544.3,861.2 527.5,864.4C496.7,870.1 462.1,872.7 433.5,871.3Z" style="fill:rgb(224,148,110);fill-rule:nonzero;"/>
        <path d="M424,806.3C369.3,803.1 309.9,784.6 262.5,756C219.2,729.8 179.4,692.7 150.3,651.2C128.1,619.5 109.7,580.8 99.1,543.2C95.3,529.6 90.5,507.6 89.8,500L89.5,496.5L132.9,496.2L176.3,496L179.6,499.5C182.2,502.4 183.5,503 186.7,503C191.2,503 194.9,500.2 195.1,496.7C195.5,489.6 192.6,486 186.7,486C183.5,486 182.2,486.6 179.6,489.5L176.4,493L132.7,493C108.7,493 88.9,492.7 88.7,492.3C88.4,491.8 88,488.4 87.9,484.5L87.5,477.5L122.3,477.2L157,477L158.1,479.4C159.3,481.9 162.8,484 166,484C175.3,484 178.32,471.544 169.8,467.7C165.981,465.977 164.973,466.491 162.7,467.4C160.7,468.2 158.7,469.8 158,470.9C156.9,473 156.6,473 121.7,472.8L86.5,472.5L86.358,465.839L86.5,458.5L130.7,458.2L174.9,458L176.5,460.4C179.8,465.5 188.3,466.2 191.5,461.7C193.7,458.6 193.4,452.4 191,450C186.9,445.9 179.8,446.6 176.5,451.6L174.9,454L130.7,453.8L86.6,453.5L85.8,449.3C85.742,446.972 85.656,445.565 85.659,444.501C85.662,443.646 85.722,443.013 85.9,442.3L86.6,439.5L105.8,439.2L124.9,439L126.5,441.4C130.1,446.9 139.3,446.9 141.9,441.4C144.9,434.8 142.1,429.2 135.2,428.3C131.559,427.825 129.871,428.296 126.009,431.77L124.3,435L105.4,434.8L86.5,434.5L86.6,424.5C86.6,412.9 88.9,392 90.2,390.3C90.8,389.5 93.7,390.8 100.3,395C131.2,414.3 171.2,432.4 207.5,443.3C230.3,450.2 261,456.8 278.4,458.6C282,459 285.6,459.8 286.4,460.4C287.1,461 288.8,465.8 290,471C304.1,530.2 343.6,642.2 366.7,688.5C376.9,708.9 382.9,717 387.6,717C397.2,717 426.7,692.3 472,646.4C521.6,596.1 568.9,541 590.4,508.8C599.2,495.5 602.9,488 603.7,481.3C605.5,465.6 591.5,408.6 570.1,344.3L563,323.2L566.6,316.8C571.7,307.9 584.2,282.8 591,268C611.2,223.8 620,206.9 632.4,188C640.1,176.3 652.7,160.3 658.1,155.3L660.5,153.1L672,162.3C686.8,174.1 711.5,198.3 723.9,213C764.9,261.8 791.2,317.2 802.9,379C805.4,392.4 807.9,413.9 808.2,425.5L808.5,434.5L788.2,434.8L767.9,435L765.224,430.683C763.024,428.483 760.3,428 758.7,428C750.6,428 746.2,436.2 751,442.3C754.8,447 762.1,446.6 765.5,441.4L767.1,439L787.8,439.2L808.5,439.5L808.5,453.5L762.8,453.8L717.1,454L715.5,451.6C710.6,444.2 698.394,447.34 699.038,455.815C699.479,461.622 702.222,463.1 703.2,463.6C707.5,465.8 712.4,464.7 715,461L717.1,458L762.6,458C798.1,458 808.2,458.3 808.5,459.3C808.8,459.9 808.7,463.2 808.2,466.5L807.5,472.5L771.6,472.8L735.7,473L733.1,470.1C729.9,466.5 726.7,465.7 722.5,467.5C716.5,470 715.7,478.6 721.2,482.4C725.1,485.2 729.8,484.5 733.4,480.5L736.7,477L771.6,477.2L806.5,477.5L806.5,483.5C806.4,494 811.3,493 760.4,493L715.6,493L712.4,489.5C709.9,486.7 708.5,486 705.6,486C697.9,486 694,495.1 699.5,500.5C703.3,504.3 708.4,503.9 712.4,499.5L715.6,496L759.9,496C796.3,496 804.2,496.2 804.6,497.4C805.3,499.3 802.5,515 798.5,531.6C785.8,583.6 760,634.3 724.9,676.5C714.2,689.3 691.3,712.2 678.5,722.9C607.1,782.3 517.2,811.8 424,806.3Z" style="fill:rgb(224,148,110);fill-rule:nonzero;"/>
        <g>
            <g transform="matrix(-1,2.77556e-16,-2.77556e-16,-1,134.073,436.999)">
                <circle cx="0" cy="0" r="5.215" style="fill:rgb(224,148,110);"/>
            </g>
            <g transform="matrix(-1,2.77556e-16,-2.77556e-16,-1,184.683,456.018)">
                <circle cx="0" cy="0" r="5.215" style="fill:rgb(224,148,110);"/>
            </g>
            <g transform="matrix(-1,2.77556e-16,-2.77556e-16,-1,165.978,475.014)">
                <circle cx="0" cy="0" r="5.215" style="fill:rgb(224,148,110);"/>
            </g>
            <g transform="matrix(-1,2.77556e-16,-2.77556e-16,-1,186.879,494.694)">
                <circle cx="0" cy="0" r="5.215" style="fill:rgb(224,148,110);"/>
            </g>
            <g transform="matrix(-1,2.77556e-16,-2.77556e-16,-1,757.767,436.984)">
                <circle cx="0" cy="0" r="5.215" style="fill:rgb(224,148,110);"/>
            </g>
            <g transform="matrix(-1,2.77556e-16,-2.77556e-16,-1,707.855,456.021)">
                <circle cx="0" cy="0" r="5.215" style="fill:rgb(224,148,110);"/>
            </g>
            <g transform="matrix(-1,2.77556e-16,-2.77556e-16,-1,726.165,475.44)">
                <circle cx="0" cy="0" r="5.215" style="fill:rgb(224,148,110);"/>
            </g>
            <g transform="matrix(-1,2.77556e-16,-2.77556e-16,-1,705.5,494.5)">
                <circle cx="0" cy="0" r="5.215" style="fill:rgb(224,148,110);"/>
            </g>
        </g>
    </g>
    <g>
        <g>
            <g transform="matrix(130.267,-2.77556e-17,1.75641e-17,2.01188,-21102.8,-497.133)">
                <ellipse cx="163.338" cy="538.385" rx="0.062" ry="4.046" style="fill:white;"/>
            </g>
            <g transform="matrix(130.267,-2.77556e-17,1.75641e-17,2.01188,-21102.8,-476.64)">
                <ellipse cx="163.338" cy="538.385" rx="0.062" ry="4.046" style="fill:white;"/>
            </g>
            <g transform="matrix(130.267,-2.77556e-17,1.75641e-17,2.01188,-21102.8,-456.147)">
                <ellipse cx="163.338" cy="538.385" rx="0.062" ry="4.046" style="fill:white;"/>
            </g>
            <g transform="matrix(130.267,-2.77556e-17,1.75641e-17,2.01188,-21084,-476.625)">
                <ellipse cx="163.338" cy="538.385" rx="0.062" ry="4.046" style="fill:white;"/>
            </g>
            <g transform="matrix(130.267,-2.77556e-17,1.75641e-17,2.01188,-21084,-456.053)">
                <ellipse cx="163.338" cy="538.385" rx="0.062" ry="4.046" style="fill:white;"/>
            </g>
            <g transform="matrix(130.267,-2.77556e-17,1.75641e-17,2.01188,-21084,-435.481)">
                <ellipse cx="163.338" cy="538.385" rx="0.062" ry="4.046" style="fill:white;"/>
            </g>
        </g>
        <g>
            <g transform="matrix(106.411,75.1412,-1.1605,1.64344,-16561.6,-12923.9)">
                <ellipse cx="163.338" cy="538.385" rx="0.062" ry="4.046" style="fill:white;"/>
            </g>
            <g transform="matrix(106.411,75.1412,-1.1605,1.64344,-16573.4,-12907.1)">
                <ellipse cx="163.338" cy="538.385" rx="0.062" ry="4.046" style="fill:white;"/>
            </g>
            <g transform="matrix(106.411,75.1412,-1.1605,1.64344,-16585.2,-12890.4)">
                <ellipse cx="163.338" cy="538.385" rx="0.062" ry="4.046" style="fill:white;"/>
            </g>
            <g transform="matrix(106.411,75.1412,-1.1605,1.64344,-16558.1,-12896.3)">
                <ellipse cx="163.338" cy="538.385" rx="0.062" ry="4.046" style="fill:white;"/>
            </g>
            <g transform="matrix(106.411,75.1412,-1.1605,1.64344,-16569.9,-12879.5)">
                <ellipse cx="163.338" cy="538.385" rx="0.062" ry="4.046" style="fill:white;"/>
            </g>
            <g transform="matrix(106.411,75.1412,-1.1605,1.64344,-16581.8,-12862.7)">
                <ellipse cx="163.338" cy="538.385" rx="0.062" ry="4.046" style="fill:white;"/>
            </g>
        </g>
        <g>
            <g transform="matrix(130.267,-2.77556e-17,1.75641e-17,2.01188,-21129.5,-549.941)">
                <ellipse cx="163.338" cy="538.385" rx="0.062" ry="4.046" style="fill:white;"/>
            </g>
            <g transform="matrix(130.267,-2.77556e-17,1.75641e-17,2.01188,-21129.5,-529.448)">
                <ellipse cx="163.338" cy="538.385" rx="0.062" ry="4.046" style="fill:white;"/>
            </g>
            <g transform="matrix(130.267,-2.77556e-17,1.75641e-17,2.01188,-21129.5,-508.956)">
                <ellipse cx="163.338" cy="538.385" rx="0.062" ry="4.046" style="fill:white;"/>
            </g>
        </g>
    </g>
    <g transform="matrix(1,0,0,1,555.009,-308.942)">
        <g transform="matrix(130.267,-2.77556e-17,1.75641e-17,2.01188,-21102.8,-497.133)">
            <ellipse cx="163.338" cy="538.385" rx="0.062" ry="4.046" style="fill:rgb(144,118,114);"/>
        </g>
        <g transform="matrix(130.267,-2.77556e-17,1.75641e-17,2.01188,-21102.8,-476.64)">
            <ellipse cx="163.338" cy="538.385" rx="0.062" ry="4.046" style="fill:rgb(144,118,114);"/>
        </g>
        <g transform="matrix(130.267,-2.77556e-17,1.75641e-17,2.01188,-21102.8,-456.147)">
            <ellipse cx="163.338" cy="538.385" rx="0.062" ry="4.046" style="fill:rgb(144,118,114);"/>
        </g>
        <g transform="matrix(130.267,-2.77556e-17,1.75641e-17,2.01188,-21084,-476.625)">
            <ellipse cx="163.338" cy="538.385" rx="0.062" ry="4.046" style="fill:rgb(144,118,114);"/>
        </g>
        <g transform="matrix(130.267,-2.77556e-17,1.75641e-17,2.01188,-21084,-456.053)">
            <ellipse cx="163.338" cy="538.385" rx="0.062" ry="4.046" style="fill:rgb(144,118,114);"/>
        </g>
        <g transform="matrix(130.267,-2.77556e-17,1.75641e-17,2.01188,-21084,-435.481)">
            <ellipse cx="163.338" cy="538.385" rx="0.062" ry="4.046" style="fill:rgb(144,118,114);"/>
        </g>
    </g>
    <g transform="matrix(1,0,0,1,526.406,6.06973)">
        <g transform="matrix(130.267,-2.77556e-17,1.75641e-17,2.01188,-21102.8,-497.133)">
            <ellipse cx="163.338" cy="538.385" rx="0.062" ry="4.046" style="fill:rgb(144,118,114);"/>
        </g>
        <g transform="matrix(130.267,-2.77556e-17,1.75641e-17,2.01188,-21102.8,-476.64)">
            <ellipse cx="163.338" cy="538.385" rx="0.062" ry="4.046" style="fill:rgb(144,118,114);"/>
        </g>
        <g transform="matrix(130.267,-2.77556e-17,1.75641e-17,2.01188,-21102.8,-456.147)">
            <ellipse cx="163.338" cy="538.385" rx="0.062" ry="4.046" style="fill:rgb(144,118,114);"/>
        </g>
        <g transform="matrix(130.267,-2.77556e-17,1.75641e-17,2.01188,-21084,-476.625)">
            <ellipse cx="163.338" cy="538.385" rx="0.062" ry="4.046" style="fill:rgb(144,118,114);"/>
        </g>
        <g transform="matrix(130.267,-2.77556e-17,1.75641e-17,2.01188,-21084,-456.053)">
            <ellipse cx="163.338" cy="538.385" rx="0.062" ry="4.046" style="fill:rgb(144,118,114);"/>
        </g>
        <g transform="matrix(130.267,-2.77556e-17,1.75641e-17,2.01188,-21084,-435.481)">
            <ellipse cx="163.338" cy="538.385" rx="0.062" ry="4.046" style="fill:rgb(144,118,114);"/>
        </g>
    </g>
    <g transform="matrix(0.303665,0.952779,-0.952779,0.303665,1079.72,465.9)">
        <g transform="matrix(130.267,-2.77556e-17,1.75641e-17,2.01188,-21102.8,-497.133)">
            <ellipse cx="163.338" cy="538.385" rx="0.062" ry="4.046" style="fill:rgb(144,118,114);"/>
        </g>
        <g transform="matrix(130.267,-2.77556e-17,1.75641e-17,2.01188,-21102.8,-476.64)">
            <ellipse cx="163.338" cy="538.385" rx="0.062" ry="4.046" style="fill:rgb(144,118,114);"/>
        </g>
        <g transform="matrix(130.267,-2.77556e-17,1.75641e-17,2.01188,-21102.8,-456.147)">
            <ellipse cx="163.338" cy="538.385" rx="0.062" ry="4.046" style="fill:rgb(144,118,114);"/>
        </g>
        <g transform="matrix(130.267,-2.77556e-17,1.75641e-17,2.01188,-21084,-476.625)">
            <ellipse cx="163.338" cy="538.385" rx="0.062" ry="4.046" style="fill:rgb(144,118,114);"/>
        </g>
        <g transform="matrix(130.267,-2.77556e-17,1.75641e-17,2.01188,-21084,-456.053)">
            <ellipse cx="163.338" cy="538.385" rx="0.062" ry="4.046" style="fill:rgb(144,118,114);"/>
        </g>
        <g transform="matrix(130.267,-2.77556e-17,1.75641e-17,2.01188,-21084,-435.481)">
            <ellipse cx="163.338" cy="538.385" rx="0.062" ry="4.046" style="fill:rgb(144,118,114);"/>
        </g>
    </g>
</svg>
