<?xml version="1.0" encoding="UTF-8" standalone="no"?>
<!DOCTYPE svg PUBLIC "-//W3C//DTD SVG 1.1//EN" "http://www.w3.org/Graphics/SVG/1.1/DTD/svg11.dtd">
<svg width="100%" height="100%" viewBox="0 0 300 300" version="1.1" xmlns="http://www.w3.org/2000/svg" xmlns:xlink="http://www.w3.org/1999/xlink" xml:space="preserve" xmlns:serif="http://www.serif.com/" style="fill-rule:evenodd;clip-rule:evenodd;stroke-linejoin:round;stroke-miterlimit:1.41421;">
    <g transform="matrix(-1.0644,8.86291e-17,-8.86291e-17,-1.0644,150,150)">
        <circle cx="0" cy="0" r="140.925" style="fill:rgb(241,90,40);"/>
    </g>
    <g transform="matrix(1,0,0,1,-19,-16)">
        <path d="M262.48,48.768C296.919,76.215 319,118.549 319,166C319,240.221 264.977,301.924 194.159,313.854C191.124,311.276 184.316,304.298 176.1,295.3C123.3,237 112.7,220.6 107.5,188.7C105.2,174.5 105.5,147.7 108.1,137C113.7,113.4 130.6,95.3 151.1,90.9C162.6,88.4 187.4,91.8 207.1,98.5C229.2,106.1 258.9,123 282.3,141.3L292,149L292,142.4C292,127.8 286.7,101.1 279.9,81.2C274.5,65.7 270.9,58.5 265.3,52L262.48,48.768Z" style="fill:rgb(252,131,43);"/>
    </g>
    <g transform="matrix(1,0,0,1,-19,-16)">
        <path d="M231.43,302.365C230.379,301 228.178,297.635 225.8,293.8C212.2,271.3 207.1,256.4 205,233.5C202.1,201.9 205.3,184.5 215.7,174.9C223.7,167.6 233.2,165.4 250.3,167C269.3,168.8 287.9,175.9 306.9,188.4C311.5,191.5 315.7,194 316.2,194L316.338,194.048C307.211,242.335 274.901,282.459 231.43,302.365Z" style="fill:rgb(231,114,114);"/>
    </g>
    <g transform="matrix(1,0,0,1,-19,-16)">
        <path d="M231.375,302.39C230.317,301.01 227.883,297.198 225.2,292.7C221.7,287 217.3,278.7 215.4,274.2L211.8,265.9L217.2,260.2C227.7,248.8 232.4,235.6 230,223.8C228.3,215 224.7,208 217.4,198.8C213.9,194.5 211.2,191 211.5,191C211.7,191 216.8,191.7 222.7,192.6C238.8,194.9 248.4,197.6 258.8,202.6C276.1,211 286.1,224.3 289.8,244C290.519,247.738 291.341,250.648 291.958,251.823C276.717,273.647 255.814,291.225 231.375,302.39Z" style="fill:rgb(249,248,248);"/>
    </g>
</svg>
